<svg width="236" height="88" viewBox="0 0 236 88" fill="none" xmlns="http://www.w3.org/2000/svg">
<path fill-rule="evenodd" clip-rule="evenodd" d="M51.3988 87.6498H152.271C152.842 87.6498 153.398 87.6083 153.934 87.5296C154.47 87.6083 155.026 87.6498 155.597 87.6498H213.238C217.524 87.6498 220.998 85.3109 220.998 82.4258C220.998 79.5407 217.524 77.2019 213.238 77.2019H206.587C202.302 77.2019 198.828 74.863 198.828 71.9779C198.828 69.0928 202.302 66.7539 206.587 66.7539H227.649C231.934 66.7539 235.408 64.4151 235.408 61.53C235.408 58.6449 231.934 56.306 227.649 56.306H203.262C207.547 56.306 211.021 53.9672 211.021 51.082C211.021 48.1969 207.547 45.8581 203.262 45.8581H132.319C136.604 45.8581 140.078 43.5192 140.078 40.6341C140.078 37.749 136.604 35.4102 132.319 35.4102H69.1346C64.8492 35.4102 61.3752 37.749 61.3752 40.6341C61.3752 43.5192 64.8492 45.8581 69.1346 45.8581H24.795C20.5096 45.8581 17.0356 48.1969 17.0356 51.082C17.0356 53.9672 20.5096 56.306 24.795 56.306H52.5073C56.7927 56.306 60.2667 58.6449 60.2667 61.53C60.2667 64.4151 56.7927 66.7539 52.5073 66.7539H8.16764C3.88222 66.7539 0.408203 69.0928 0.408203 71.9779C0.408203 74.863 3.88222 77.2019 8.16764 77.2019H51.3988C47.1134 77.2019 43.6393 79.5407 43.6393 82.4258C43.6393 85.3109 47.1134 87.6498 51.3988 87.6498ZM229.136 87.6504C232.076 87.6504 234.461 85.3115 234.461 82.4264C234.461 79.5413 232.076 77.2024 229.136 77.2024C226.195 77.2024 223.811 79.5413 223.811 82.4264C223.811 85.3115 226.195 87.6504 229.136 87.6504Z" fill="#E7EEF2" fill-opacity="0.47"/>
<rect x="78.0059" y="19.71" width="103.138" height="55.9159" fill="white"/>
<path d="M170.248 85.6479H88.8579C85.9798 85.6479 83.2195 84.5329 81.1844 82.548C79.1492 80.5631 78.0059 77.8711 78.0059 75.0641V11.5609C78.0059 5.68687 82.835 0.977051 88.8579 0.977051H121.414L132.266 11.5609H170.248C173.127 11.5609 175.887 12.676 177.922 14.6609C179.957 16.6457 181.1 19.3378 181.1 22.1448H88.8579V75.0641L100.47 32.7286H193.092L180.721 77.7101C179.473 82.314 175.24 85.6479 170.248 85.6479Z" fill="#E8EEF1"/>
</svg>
