<svg width="231" height="110" viewBox="0 0 231 110" fill="none" xmlns="http://www.w3.org/2000/svg">
<path fill-rule="evenodd" clip-rule="evenodd" d="M49.2713 94.0002H146.426C146.976 94.0002 147.512 93.9653 148.027 93.899C148.543 93.9653 149.079 94.0002 149.629 94.0002H205.146C209.273 94.0002 212.619 92.0303 212.619 89.6002C212.619 87.1702 209.273 85.2002 205.146 85.2002H198.74C194.613 85.2002 191.267 83.2303 191.267 80.8002C191.267 78.3702 194.613 76.4002 198.74 76.4002H219.025C223.153 76.4002 226.499 74.4303 226.499 72.0002C226.499 69.5702 223.153 67.6002 219.025 67.6002H195.537C199.665 67.6002 203.011 65.6303 203.011 63.2002C203.011 60.7702 199.665 58.8002 195.537 58.8002H127.209C131.336 58.8002 134.682 56.8303 134.682 54.4002C134.682 51.9702 131.336 50.0002 127.209 50.0002H66.3535C62.226 50.0002 58.88 51.9702 58.88 54.4002C58.88 56.8303 62.226 58.8002 66.3535 58.8002H23.6481C19.5206 58.8002 16.1747 60.7702 16.1747 63.2002C16.1747 65.6303 19.5206 67.6002 23.6481 67.6002H50.339C54.4664 67.6002 57.8124 69.5702 57.8124 72.0002C57.8124 74.4303 54.4664 76.4002 50.339 76.4002H7.6336C3.50613 76.4002 0.160156 78.3702 0.160156 80.8002C0.160156 83.2303 3.50613 85.2002 7.6336 85.2002H49.2713C45.1439 85.2002 41.7979 87.1702 41.7979 89.6002C41.7979 92.0303 45.1439 94.0002 49.2713 94.0002ZM223.295 102C227.423 102 230.769 98.8662 230.769 95.0002C230.769 91.1343 227.423 88.0002 223.295 88.0002C219.168 88.0002 215.822 91.1343 215.822 95.0002C215.822 98.8662 219.168 102 223.295 102Z" fill="#F4F7F9"/>
<path d="M95.4799 4.83239C92.65 6.07518 89.6666 8.59274 87.2003 12.0905C84.7339 15.5883 83.2517 19.404 82.8491 22.7456" stroke="#E8EDF0" stroke-width="3.67" stroke-linecap="round"/>
<path d="M105.387 8.88995C101.687 10.0549 97.7848 12.8263 94.5582 16.9282C91.3317 21.0301 89.3913 25.6858 88.8623 29.897" stroke="#E8EDF0" stroke-width="3.67" stroke-linecap="round"/>
<path d="M175.549 19.5475C174.896 16.5267 173.024 13.1012 170.088 9.98708C167.152 6.87291 163.708 4.65975 160.514 3.59898" stroke="#E8EDF0" stroke-width="3.67" stroke-linecap="round"/>
<path d="M169.596 28.4468C169.192 24.5888 167.254 20.2128 163.878 16.2333C160.502 12.2537 156.326 9.42409 152.305 8.06619" stroke="#E8EDF0" stroke-width="3.67" stroke-linecap="round"/>
<path d="M174.507 88.9709V94.0202H83.6211V88.9709L93.7196 78.8725V48.5771C93.7196 32.9245 103.969 19.1401 118.966 14.6968V13.2325C118.966 10.5542 120.03 7.98563 121.923 6.0918C123.817 4.19797 126.386 3.13403 129.064 3.13403C131.742 3.13403 134.311 4.19797 136.205 6.0918C138.099 7.98563 139.163 10.5542 139.163 13.2325V14.6968C154.159 19.1401 164.409 32.9245 164.409 48.5771V78.8725L174.507 88.9709ZM139.163 99.0694C139.163 101.748 138.099 104.316 136.205 106.21C134.311 108.104 131.742 109.168 129.064 109.168C126.386 109.168 123.817 108.104 121.923 106.21C120.03 104.316 118.966 101.748 118.966 99.0694" fill="#E8EDF0"/>
<rect x="100.117" y="69.5271" width="12.6375" height="3.54889" rx="1.77444" fill="white"/>
<rect x="115.473" y="69.5271" width="7.83833" height="3.54889" rx="1.77444" fill="white"/>
</svg>
