<svg width="236" height="114" viewBox="0 0 236 114" fill="none" xmlns="http://www.w3.org/2000/svg">
<path fill-rule="evenodd" clip-rule="evenodd" d="M51.3988 109.65H152.271C152.842 109.65 153.398 109.608 153.934 109.53C154.47 109.608 155.026 109.65 155.597 109.65H213.238C217.524 109.65 220.998 107.311 220.998 104.426C220.998 101.541 217.524 99.2019 213.238 99.2019H206.587C202.302 99.2019 198.828 96.863 198.828 93.9779C198.828 91.0928 202.302 88.7539 206.587 88.7539H227.649C231.934 88.7539 235.408 86.4151 235.408 83.53C235.408 80.6449 231.934 78.306 227.649 78.306H203.262C207.547 78.306 211.021 75.9672 211.021 73.082C211.021 70.1969 207.547 67.8581 203.262 67.8581H132.319C136.604 67.8581 140.078 65.5192 140.078 62.6341C140.078 59.749 136.604 57.4102 132.319 57.4102H69.1346C64.8492 57.4102 61.3752 59.749 61.3752 62.6341C61.3752 65.5192 64.8492 67.8581 69.1346 67.8581H24.795C20.5096 67.8581 17.0356 70.1969 17.0356 73.082C17.0356 75.9672 20.5096 78.306 24.795 78.306H52.5073C56.7927 78.306 60.2667 80.6449 60.2667 83.53C60.2667 86.4151 56.7927 88.7539 52.5073 88.7539H8.16764C3.88222 88.7539 0.408203 91.0928 0.408203 93.9779C0.408203 96.863 3.88222 99.2019 8.16764 99.2019H51.3988C47.1134 99.2019 43.6393 101.541 43.6393 104.426C43.6393 107.311 47.1134 109.65 51.3988 109.65ZM229.136 109.65C232.076 109.65 234.461 107.312 234.461 104.426C234.461 101.541 232.076 99.2024 229.136 99.2024C226.195 99.2024 223.811 101.541 223.811 104.426C223.811 107.312 226.195 109.65 229.136 109.65Z" fill="#E7EEF2" fill-opacity="0.47"/>
<rect x="78.0059" y="41.71" width="103.138" height="55.9159" fill="#E8EEF1"/>
<path fill-rule="evenodd" clip-rule="evenodd" d="M90.0927 99.5375L86.0226 100.109C83.835 100.417 81.8123 98.8927 81.5048 96.7051L70.371 17.4836C70.0635 15.296 71.5877 13.2733 73.7754 12.9659L152.007 1.97121C154.194 1.66376 156.217 3.18795 156.524 5.37559C156.524 5.37559 157.236 10.441 157.481 12.1833" fill="white"/>
<path fill-rule="evenodd" clip-rule="evenodd" d="M92.6195 95.1272L88.9236 95.6525C86.9371 95.9348 85.103 94.5536 84.827 92.5675L74.8319 20.6427C74.5559 18.6565 75.9425 16.8176 77.929 16.5352L148.966 6.43847C150.953 6.15613 152.787 7.53733 153.063 9.52348L153.922 15.7042C153.968 16.0387 157.037 38.2381 163.128 82.3026C163.433 84.5152 161.908 86.5597 159.72 86.8689C159.696 86.8723 159.673 86.8754 159.649 86.8783L92.6195 95.1272Z" fill="#E8EEF1"/>
<path d="M90.0927 99.5375L86.0226 100.109C83.835 100.417 81.8123 98.8927 81.5048 96.7051L70.371 17.4836C70.0635 15.296 71.5877 13.2733 73.7754 12.9659L152.007 1.97121C154.194 1.66376 156.217 3.18795 156.524 5.37559C156.524 5.37559 157.236 10.441 157.481 12.1833" stroke="#E8EEF1" stroke-width="2.5" stroke-linecap="round"/>
<path d="M158.314 16.7939L158.814 19.9144" stroke="#E8EEF1" stroke-width="2.5" stroke-linecap="round"/>
<path d="M106.66 18.4552L185.227 26.713C186.738 26.8717 187.833 28.2249 187.675 29.7353L179.312 109.297C179.154 110.808 177.8 111.903 176.29 111.745L97.7227 103.487C96.2123 103.328 95.1165 101.975 95.2753 100.464L103.638 20.9027C103.796 19.3922 105.149 18.2965 106.66 18.4552Z" fill="white" stroke="#E8EEF1" stroke-width="2.5"/>
<path fill-rule="evenodd" clip-rule="evenodd" d="M110.509 29.6691C110.682 28.0213 112.158 26.8259 113.806 26.9991L176.461 33.5844C178.108 33.7576 179.304 35.2338 179.131 36.8816L173.591 89.5912C173.417 91.239 171.941 92.4344 170.294 92.2612L107.639 85.6759C105.991 85.5027 104.795 84.0266 104.969 82.3788L110.509 29.6691Z" fill="white"/>
<path fill-rule="evenodd" clip-rule="evenodd" d="M113.555 70.2923L123.353 63.6842C124.986 62.5824 127.179 62.8344 128.52 64.2782L135.694 72.0012C136.052 72.3866 136.647 72.4288 137.056 72.0976L152.396 59.6679C154.244 58.1707 156.982 58.6068 158.273 60.604L168.254 76.0413L169.687 78.4332L169.001 86.558C168.954 87.1186 168.453 87.5298 167.894 87.4677L110.931 81.1389C110.39 81.0787 109.996 80.596 110.046 80.0533L110.801 71.8547L113.555 70.2923Z" fill="#E8EEF1"/>
<path d="M113.675 28.2423L176.33 34.8276C177.291 34.9286 177.989 35.7897 177.888 36.7509L172.348 89.4606C172.247 90.4218 171.385 91.1191 170.424 91.0181L107.769 84.4328C106.808 84.3317 106.111 83.4706 106.212 82.5094L111.752 29.7998C111.853 28.8386 112.714 28.1413 113.675 28.2423Z" stroke="#E8EEF1" stroke-width="2.5"/>
<circle cx="125.848" cy="46.3638" r="6" transform="rotate(6 125.848 46.3638)" fill="#E8EEF1" stroke="#E8EEF1" stroke-width="2.5"/>
<path d="M111.545 71.8389C115.481 69.1206 123.354 63.6838 123.354 63.6838C124.988 62.582 127.18 62.8341 128.521 64.2778L135.695 72.0008C136.053 72.3862 136.648 72.4284 137.057 72.0972L152.397 59.6675C154.113 58.2768 156.632 58.5407 158.023 60.2571C158.113 60.3681 158.197 60.4837 158.274 60.6036C158.274 60.6036 167.243 74.8343 169.338 78.1596" stroke="#E8EEF1" stroke-width="2.5" stroke-linecap="round"/>
</svg>
