<svg width="516" height="522" viewBox="0 0 516 522" fill="none" xmlns="http://www.w3.org/2000/svg">
    <g clip-path="url(#clip0_603_2961)">
        <path
            d="M152.58 222.54C147.754 223.435 140.108 213.68 135.273 200.458C130.237 186.686 129.994 173.928 134.738 172.193C139.48 170.459 147.527 180.363 152.563 194.134"
            fill="white" />
        <path
            d="M160.239 380.553C175.642 366.102 179.899 345.62 169.751 334.803C159.602 323.986 138.89 326.933 123.489 341.384C108.086 355.835 103.828 376.319 113.976 387.135C124.125 397.951 144.838 395.004 160.239 380.553Z"
            fill="white" />
        <path
            d="M162.297 374.94C177.698 360.489 181.956 340.006 171.808 329.19C161.658 318.373 140.946 321.321 125.545 335.772C110.143 350.223 105.884 370.705 116.033 381.522C126.182 392.337 146.894 389.391 162.297 374.94Z"
            fill="#FBA173" />
        <path
            d="M328.915 98.6587C328.915 98.6587 321.618 105.244 316.51 95.8145C316.51 95.8145 311.246 103.821 304.586 102.384C304.586 102.384 313.656 119.913 324.13 117.818C334.602 115.722 333.555 104.945 333.555 104.945C327.418 103.748 328.915 98.6587 328.915 98.6587Z"
            fill="white" />
        <path
            d="M281.916 218.551C293.344 212.962 307.245 205.61 320.542 195.574L328.616 189.064C328.616 189.064 315.598 164.475 296.033 154.366C286.481 166.188 275.779 181.441 258.566 183.675C235.516 186.669 202.287 170.967 179.536 181.662C156.785 192.357 159.927 193.555 162.023 195.052C164.118 196.548 177.066 191.721 177.066 191.721C177.066 191.721 176.28 197.896 181.556 198.456C181.556 198.456 178.638 205.079 185.485 206.875C185.485 206.875 185.074 214.585 191.062 214.285C197.048 213.986 213.214 208.897 215.833 210.319C218.453 211.741 268.146 225.287 281.916 218.551Z"
            fill="white" />
        <path
            d="M177.064 192.346C176.923 192.346 176.787 192.298 176.677 192.211C176.566 192.124 176.489 192.002 176.456 191.865C176.424 191.728 176.439 191.585 176.499 191.458C176.558 191.33 176.659 191.227 176.785 191.164L180.901 189.106C180.976 189.069 181.055 189.047 181.137 189.041C181.218 189.034 181.301 189.046 181.378 189.071C181.456 189.097 181.528 189.137 181.591 189.192C181.652 189.245 181.703 189.31 181.74 189.385C181.776 189.458 181.798 189.538 181.804 189.619C181.81 189.701 181.8 189.784 181.774 189.861C181.747 189.939 181.707 190.01 181.652 190.073C181.599 190.134 181.533 190.185 181.46 190.221L177.343 192.28C177.256 192.324 177.161 192.346 177.064 192.346Z"
            fill="black" />
        <path
            d="M181.555 199.08C181.412 199.08 181.273 199.031 181.162 198.941C181.051 198.85 180.974 198.726 180.945 198.586C180.915 198.445 180.935 198.3 181 198.173C181.065 198.045 181.172 197.944 181.303 197.886L183.922 196.727C184.073 196.659 184.244 196.656 184.399 196.715C184.553 196.774 184.677 196.894 184.743 197.045C184.811 197.196 184.814 197.367 184.755 197.522C184.696 197.676 184.577 197.8 184.425 197.867L181.806 199.027C181.728 199.063 181.642 199.08 181.555 199.08Z"
            fill="black" />
        <path
            d="M185.486 207.499C185.342 207.499 185.202 207.449 185.09 207.359C184.979 207.267 184.902 207.141 184.873 206.999C184.845 206.858 184.866 206.711 184.934 206.584C185.001 206.456 185.11 206.356 185.243 206.301L187.376 205.402C187.528 205.339 187.7 205.339 187.853 205.401C188.005 205.464 188.127 205.584 188.192 205.736C188.256 205.889 188.257 206.059 188.195 206.212C188.133 206.366 188.013 206.489 187.861 206.552L185.728 207.451C185.651 207.483 185.568 207.499 185.486 207.499Z"
            fill="black" />
        <path
            d="M292.024 152.543C292.024 152.543 335.581 105.394 359.605 113.028C383.628 120.662 453.753 271.688 381.907 293.84C381.907 293.84 393.058 306.338 399.794 315.096C406.529 323.852 422.694 320.258 422.694 320.258L379.586 369.204L295.616 300.726C295.616 300.726 319.865 321.83 327.049 344.282C334.234 366.735 358.931 379.532 358.931 379.532L296.065 417.251L224.473 289.2C222.053 284.87 220.776 279.994 220.766 275.033C220.755 270.073 222.011 265.191 224.414 260.852C226.817 256.512 230.288 252.857 234.497 250.233C238.707 247.609 243.517 246.102 248.471 245.856L346.133 241.004L320.506 195.607L328.621 189.065C328.621 189.065 313.802 161.074 292.024 152.543Z"
            fill="#DACDF4" />
        <path
            d="M296.06 417.874C296.005 417.874 295.951 417.867 295.899 417.854C295.819 417.833 295.742 417.796 295.677 417.743C295.611 417.692 295.556 417.628 295.515 417.555L223.921 289.505C221.448 285.082 220.145 280.102 220.135 275.036C220.124 269.968 221.407 264.983 223.862 260.55C226.316 256.117 229.861 252.384 234.161 249.704C238.461 247.025 243.374 245.486 248.435 245.234L345.088 240.432L319.956 195.914C319.883 195.785 319.859 195.634 319.887 195.489C319.914 195.344 319.993 195.214 320.108 195.121L327.816 188.906C325.794 185.283 311.596 160.883 291.79 153.125C291.696 153.088 291.611 153.028 291.545 152.951C291.479 152.874 291.432 152.782 291.41 152.684C291.387 152.585 291.39 152.482 291.415 152.383C291.442 152.286 291.49 152.195 291.56 152.121C293.349 150.184 335.658 104.765 359.787 112.433C376.103 117.617 414.275 188.514 414.045 242.029C413.927 269.49 403.2 287.486 383.004 294.143C385.469 296.93 394.532 307.24 400.282 314.715C406.696 323.053 422.394 319.686 422.552 319.65C422.681 319.622 422.815 319.635 422.936 319.687C423.057 319.739 423.158 319.828 423.224 319.942C423.291 320.055 423.32 320.187 423.308 320.318C423.296 320.449 423.242 320.572 423.155 320.671L380.048 369.617C379.942 369.737 379.792 369.813 379.632 369.826C379.47 369.839 379.311 369.79 379.186 369.689L305.223 309.37C312.935 317.689 323.35 330.694 327.638 344.092C334.657 366.032 358.968 378.851 359.213 378.977C359.312 379.028 359.394 379.105 359.453 379.199C359.512 379.293 359.546 379.401 359.548 379.512C359.552 379.624 359.525 379.734 359.473 379.831C359.42 379.928 359.341 380.01 359.246 380.067L296.38 417.786C296.283 417.844 296.172 417.874 296.06 417.874ZM321.302 195.761L346.67 240.697C346.722 240.79 346.75 240.895 346.75 241C346.751 241.107 346.724 241.211 346.672 241.305C346.621 241.398 346.548 241.477 346.457 241.533C346.367 241.59 346.264 241.622 346.157 241.627L248.495 246.479C243.647 246.721 238.941 248.194 234.82 250.763C230.701 253.331 227.305 256.907 224.953 261.154C222.602 265.401 221.373 270.178 221.382 275.033C221.393 279.887 222.641 284.658 225.011 288.896L296.29 416.385L357.678 379.554C353.024 376.892 332.817 364.378 326.448 344.472C319.399 322.442 295.441 301.407 295.201 301.196C295.077 301.089 295.001 300.937 294.989 300.773C294.976 300.611 295.028 300.448 295.134 300.323C295.238 300.198 295.389 300.12 295.553 300.105C295.715 300.09 295.878 300.139 296.004 300.242L379.51 368.343L421.04 321.187C416.564 321.863 404.919 322.79 399.293 315.475C392.649 306.837 381.546 294.38 381.436 294.256C381.366 294.178 381.318 294.083 381.293 293.982C381.27 293.88 381.272 293.774 381.3 293.673C381.328 293.572 381.382 293.48 381.453 293.406C381.527 293.331 381.617 293.275 381.717 293.245C402.223 286.921 412.68 269.689 412.798 242.024C412.898 218.965 405.374 189.127 392.158 160.158C380.807 135.278 367.34 116.142 359.41 113.622C337.58 106.691 298.493 146.643 293.098 152.309C314.38 161.21 329.018 188.494 329.166 188.772C329.233 188.901 329.254 189.048 329.225 189.191C329.196 189.332 329.118 189.46 329.006 189.55L321.302 195.761Z"
            fill="black" />
        <path
            d="M297.033 96.3526C295.002 93.4757 293.953 90.0208 294.04 86.5006C294.188 83.0092 295.518 79.2565 300.626 79.4997C310.056 79.9487 312.9 77.7032 316.043 74.2606C317.276 73.0508 318.751 72.1146 320.37 71.5138C321.989 70.913 323.717 70.6608 325.442 70.7739C327.165 70.8869 328.846 71.3626 330.373 72.1698C331.9 72.9769 333.239 74.0976 334.304 75.4581C340.441 82.942 338.795 92.222 338.795 92.222C338.795 92.222 339.693 106.142 333.556 104.945C327.419 103.748 328.916 98.6584 328.916 98.6584C328.916 98.6584 321.618 105.244 316.51 95.8142C316.51 95.8142 306.78 110.644 297.033 96.3526Z"
            fill="black" />
        <path
            d="M320.536 111.705C320.392 111.705 320.254 111.655 320.142 111.565C320.032 111.475 319.956 111.35 319.925 111.21C319.896 111.07 319.915 110.924 319.98 110.797C320.045 110.67 320.153 110.569 320.283 110.511C320.318 110.495 323.628 109.002 323.505 106.774C323.5 106.692 323.512 106.61 323.539 106.533C323.567 106.455 323.608 106.384 323.663 106.323C323.717 106.262 323.784 106.213 323.858 106.178C323.931 106.142 324.011 106.122 324.093 106.117C324.176 106.111 324.258 106.122 324.336 106.148C324.414 106.175 324.486 106.217 324.546 106.272C324.607 106.327 324.657 106.394 324.692 106.468C324.727 106.543 324.747 106.623 324.75 106.706C324.922 109.796 320.956 111.578 320.786 111.652C320.707 111.687 320.622 111.705 320.536 111.705Z"
            fill="black" />
        <path
            d="M270.259 221.012C250.345 221.012 218.002 212.205 215.537 210.866C214.225 210.151 207.639 211.634 202.348 212.824C198.649 213.776 194.89 214.472 191.096 214.907C190.339 214.979 189.577 214.885 188.861 214.632C188.146 214.378 187.494 213.972 186.951 213.441C185.105 211.589 184.874 208.542 184.858 207.343C184.014 207.132 183.224 206.744 182.54 206.206C181.856 205.669 181.294 204.992 180.89 204.222C180.194 202.544 180.134 200.67 180.721 198.95C179.559 198.716 178.519 198.078 177.781 197.15C176.847 195.831 176.363 194.246 176.401 192.63C172.985 193.862 163.694 197.002 161.662 195.56L161.439 195.403C160.74 194.914 159.867 194.306 159.958 193.238C160.097 191.582 162.535 188.966 179.273 181.097C192.92 174.683 210.132 177.616 226.781 180.451C238.3 182.413 249.178 184.269 258.489 183.057C273.977 181.046 284.116 168.313 293.064 157.079C293.903 156.025 294.73 154.986 295.549 153.973C295.64 153.861 295.765 153.784 295.905 153.755C296.047 153.724 296.193 153.744 296.321 153.81C315.834 163.894 329.038 188.524 329.17 188.772C329.237 188.899 329.258 189.047 329.228 189.189C329.199 189.331 329.121 189.458 329.009 189.549L320.935 196.059C307.247 206.39 293.042 213.805 282.192 219.111C279.429 220.462 275.23 221.012 270.259 221.012ZM214.291 209.445C214.922 209.406 215.552 209.517 216.132 209.769C219.146 211.405 268.515 224.412 281.645 217.99C292.443 212.71 306.58 205.331 320.169 195.075L327.82 188.905C325.952 185.556 313.676 164.437 296.199 155.155C295.486 156.039 294.766 156.94 294.038 157.856C284.945 169.275 274.637 182.218 258.65 184.295C249.149 185.527 238.181 183.658 226.571 181.681C210.113 178.876 193.096 175.979 179.803 182.225C167.599 187.964 161.34 191.704 161.2 193.342C161.173 193.671 161.559 193.965 162.152 194.379L162.389 194.543C163.527 195.368 170.639 193.452 176.85 191.136C176.95 191.099 177.059 191.089 177.164 191.105C177.27 191.122 177.37 191.166 177.455 191.233C177.538 191.3 177.604 191.387 177.645 191.486C177.685 191.584 177.699 191.693 177.687 191.799C177.507 193.405 177.887 195.022 178.762 196.38C179.114 196.806 179.55 197.155 180.042 197.406C180.534 197.656 181.074 197.803 181.625 197.836C181.722 197.847 181.815 197.88 181.898 197.934C181.98 197.987 182.048 198.059 182.097 198.144C182.147 198.228 182.175 198.324 182.181 198.421C182.186 198.52 182.169 198.617 182.13 198.708C181.462 200.293 181.422 202.071 182.017 203.685C182.393 204.358 182.913 204.939 183.541 205.387C184.168 205.833 184.887 206.136 185.645 206.273C185.785 206.309 185.907 206.391 185.991 206.507C186.076 206.623 186.118 206.765 186.11 206.909C186.108 206.945 185.94 210.664 187.837 212.563C188.256 212.969 188.76 213.278 189.312 213.468C189.865 213.659 190.453 213.725 191.033 213.663C194.755 213.222 198.443 212.537 202.074 211.608C207.794 210.32 211.903 209.445 214.291 209.445Z"
            fill="black" />
        <path
            d="M322.358 118.617C312.408 118.617 304.392 103.36 304.035 102.67C303.98 102.565 303.957 102.447 303.967 102.329C303.978 102.211 304.022 102.099 304.094 102.005C304.166 101.911 304.263 101.84 304.373 101.799C304.485 101.758 304.605 101.75 304.72 101.775C310.878 103.095 315.941 95.5469 315.991 95.4702C316.043 95.3742 316.124 95.2964 316.222 95.2466C316.319 95.197 316.429 95.1776 316.539 95.1913C316.646 95.1956 316.751 95.2281 316.843 95.285C316.934 95.342 317.008 95.4217 317.06 95.5164C318.546 98.2596 320.349 99.8322 322.418 100.191C325.612 100.744 328.47 98.2183 328.501 98.1938C328.601 98.1038 328.729 98.0492 328.864 98.038C328.998 98.0266 329.134 98.0591 329.248 98.1311C329.363 98.2031 329.451 98.3104 329.5 98.4369C329.547 98.5633 329.554 98.702 329.516 98.8321C329.24 99.9542 329.395 101.139 329.953 102.151C330.386 102.756 330.942 103.263 331.584 103.639C332.225 104.014 332.938 104.25 333.677 104.332C333.809 104.358 333.929 104.425 334.019 104.525C334.11 104.624 334.165 104.75 334.179 104.884C334.19 104.998 335.155 116.247 324.254 118.429C323.629 118.554 322.995 118.617 322.358 118.617ZM305.739 103.167C307.886 106.881 315.549 118.888 324.01 117.206C332.729 115.46 333.029 107.47 332.963 105.454C332.138 105.308 331.352 104.996 330.649 104.538C329.947 104.08 329.346 103.485 328.88 102.788C328.382 101.947 328.123 100.985 328.133 100.006C327.202 100.697 326.13 101.17 324.993 101.39C323.856 101.611 322.684 101.574 321.563 101.281C320.442 100.989 319.401 100.449 318.517 99.7006C317.633 98.9526 316.927 98.0155 316.454 96.9587C314.987 98.8723 310.907 103.482 305.739 103.167Z"
            fill="black" />
        <path
            d="M341.299 233.072C341.146 233.072 340.998 233.015 340.884 232.913C340.77 232.811 340.697 232.67 340.679 232.517C340.663 232.365 340.703 232.212 340.792 232.087C340.88 231.962 341.012 231.874 341.161 231.841C341.624 231.735 387.655 221.17 407.279 201.339C407.395 201.223 407.553 201.159 407.716 201.159C407.881 201.159 408.038 201.224 408.155 201.339C408.271 201.455 408.338 201.611 408.339 201.775C408.342 201.938 408.279 202.097 408.165 202.215C388.284 222.307 341.902 232.951 341.437 233.056C341.392 233.067 341.345 233.072 341.299 233.072Z"
            fill="black" />
        <path
            d="M295.611 301.348C295.575 301.348 295.539 301.346 295.504 301.34L275.972 297.972C275.891 297.959 275.813 297.929 275.743 297.885C275.674 297.842 275.613 297.785 275.566 297.718C275.518 297.65 275.485 297.575 275.466 297.495C275.449 297.415 275.446 297.331 275.46 297.25C275.474 297.17 275.504 297.092 275.547 297.023C275.591 296.953 275.649 296.894 275.717 296.846C275.784 296.799 275.859 296.765 275.939 296.748C276.02 296.729 276.103 296.728 276.183 296.742L295.715 300.11C295.87 300.136 296.008 300.219 296.104 300.344C296.199 300.467 296.244 300.622 296.232 300.778C296.219 300.933 296.147 301.078 296.032 301.184C295.917 301.289 295.767 301.348 295.611 301.348Z"
            fill="black" />
        <path
            d="M325.776 325.325C325.776 325.325 364.538 313.972 376.887 296.01C376.887 296.01 321.39 306.803 295.611 300.725L325.776 325.325Z"
            fill="black" />
        <path
            d="M220.285 520.921C220.267 520.921 220.247 520.92 220.229 520.919C220.064 520.904 219.912 520.825 219.806 520.697C219.7 520.571 219.649 520.407 219.663 520.242C222.364 489.452 216.555 463.737 204.146 448.508C194.954 461.186 185.929 468.471 177.297 470.166C175.287 470.563 157.466 473.68 149.711 461.814C145.02 454.631 145.432 444.049 150.652 437.725C159.244 427.316 179.373 430.577 190.922 436.216C195.949 438.717 200.418 442.21 204.063 446.482C204.21 446.272 204.358 446.061 204.506 445.849C215.579 429.951 223.463 410.007 227.303 388.17C230.961 367.134 230.809 345.613 226.857 324.631C226.842 324.549 226.843 324.467 226.859 324.387C226.876 324.306 226.909 324.229 226.954 324.162C227.001 324.094 227.061 324.036 227.129 323.992C227.198 323.947 227.274 323.916 227.356 323.901C227.436 323.886 227.519 323.888 227.599 323.904C227.679 323.922 227.756 323.955 227.823 324.002C227.891 324.048 227.949 324.107 227.993 324.177C228.037 324.245 228.067 324.323 228.082 324.403C232.063 345.532 232.215 367.205 228.531 388.387C224.66 410.4 216.706 430.517 205.53 446.562C205.317 446.865 205.106 447.167 204.895 447.465C217.654 462.934 223.65 489.078 220.905 520.352C220.891 520.507 220.821 520.652 220.706 520.757C220.591 520.862 220.441 520.921 220.285 520.921ZM168.455 432.245C161.685 432.245 155.375 433.962 151.614 438.519C146.721 444.447 146.345 454.378 150.756 461.132C158.062 472.312 175.133 469.319 177.056 468.943C185.426 467.298 194.257 460.094 203.321 447.521C199.748 443.277 195.34 439.81 190.373 437.336C183.514 434.097 176.04 432.361 168.455 432.245Z"
            fill="black" />
        <path
            d="M283.013 466.144C282.933 466.145 282.854 466.129 282.78 466.098C282.689 466.061 282.609 466.004 282.545 465.932C282.481 465.859 282.435 465.772 282.411 465.678C282.064 464.364 274.115 433.31 289.566 420.637L345.451 386.909C345.593 386.825 345.762 386.799 345.923 386.838C346.084 386.878 346.222 386.979 346.308 387.12L364.093 416.596C364.135 416.666 364.163 416.744 364.176 416.825C364.188 416.905 364.185 416.988 364.165 417.068C364.146 417.147 364.111 417.222 364.062 417.288C364.013 417.354 363.952 417.41 363.882 417.452L283.335 466.054C283.239 466.113 283.127 466.144 283.013 466.144ZM345.563 388.299L290.285 421.654C276.866 432.666 282.267 459.52 283.42 464.546L362.703 416.707L345.563 388.299Z"
            fill="black" />
        <path
            d="M340.126 423.03C339.989 423.03 339.857 422.986 339.749 422.904C339.64 422.821 339.562 422.705 339.525 422.574C339.488 422.443 339.496 422.304 339.546 422.177C339.596 422.051 339.686 421.944 339.802 421.873L359.411 410.041C359.482 409.999 359.56 409.97 359.641 409.959C359.721 409.946 359.804 409.949 359.883 409.969C359.963 409.989 360.039 410.024 360.105 410.072C360.17 410.121 360.227 410.182 360.269 410.252C360.312 410.322 360.339 410.4 360.352 410.481C360.364 410.562 360.36 410.644 360.341 410.725C360.321 410.803 360.286 410.879 360.237 410.945C360.189 411.011 360.127 411.067 360.057 411.109L340.449 422.94C340.351 422.999 340.24 423.03 340.126 423.03Z"
            fill="black" />
        <path
            d="M304.622 421.552C304.515 421.552 304.409 421.525 304.316 421.472C304.222 421.419 304.144 421.342 304.089 421.25L300.262 414.906C300.176 414.764 300.151 414.595 300.19 414.435C300.231 414.275 300.333 414.137 300.474 414.051C300.616 413.966 300.785 413.941 300.945 413.98C301.105 414.019 301.244 414.122 301.328 414.263L305.156 420.607C305.198 420.678 305.227 420.754 305.239 420.835C305.251 420.917 305.248 420.999 305.228 421.078C305.208 421.158 305.172 421.233 305.124 421.298C305.075 421.365 305.015 421.42 304.944 421.462C304.848 421.521 304.736 421.552 304.622 421.552Z"
            fill="black" />
        <path
            d="M378.896 422.313C378.879 422.313 378.86 422.311 378.843 422.31C378.746 422.302 378.654 422.272 378.57 422.221C378.488 422.171 378.418 422.101 378.367 422.019C377.645 420.866 360.857 393.56 371.861 376.879L415.246 328.11C415.357 327.987 415.511 327.911 415.676 327.902C415.758 327.895 415.84 327.905 415.918 327.933C415.995 327.96 416.067 328.003 416.127 328.059L441.845 350.944C441.906 350.999 441.956 351.065 441.992 351.138C442.028 351.212 442.049 351.292 442.054 351.374C442.058 351.456 442.047 351.537 442.02 351.615C441.992 351.691 441.951 351.763 441.896 351.824L379.361 422.103C379.302 422.169 379.231 422.222 379.15 422.258C379.07 422.294 378.983 422.313 378.896 422.313ZM415.764 329.405L372.847 377.637C363.289 392.137 376.404 416.18 378.996 420.637L440.55 351.461L415.764 329.405Z"
            fill="black" />
        <path
            d="M420.675 364.216C420.554 364.216 420.437 364.183 420.336 364.116C420.235 364.052 420.155 363.959 420.105 363.848C420.056 363.739 420.04 363.618 420.058 363.499C420.076 363.38 420.128 363.268 420.208 363.179L435.432 346.07C435.487 346.008 435.552 345.957 435.626 345.921C435.7 345.885 435.78 345.863 435.863 345.858C435.944 345.853 436.026 345.864 436.104 345.891C436.182 345.918 436.254 345.959 436.315 346.014C436.377 346.068 436.427 346.135 436.463 346.209C436.499 346.283 436.519 346.364 436.524 346.446C436.529 346.528 436.517 346.61 436.489 346.688C436.463 346.766 436.42 346.837 436.365 346.898L421.141 364.007C421.083 364.074 421.011 364.126 420.93 364.162C420.85 364.198 420.763 364.216 420.675 364.216Z"
            fill="black" />
        <path
            d="M386.324 373.322C386.171 373.322 386.024 373.267 385.91 373.165L380.375 368.24C380.314 368.186 380.264 368.119 380.228 368.046C380.192 367.972 380.171 367.892 380.165 367.811C380.16 367.728 380.171 367.647 380.199 367.569C380.225 367.492 380.267 367.42 380.322 367.358C380.376 367.297 380.442 367.247 380.516 367.212C380.59 367.176 380.67 367.155 380.751 367.15C380.833 367.146 380.916 367.156 380.994 367.183C381.07 367.211 381.142 367.253 381.204 367.307L386.738 372.232C386.832 372.316 386.9 372.427 386.93 372.55C386.96 372.673 386.952 372.801 386.907 372.92C386.863 373.038 386.783 373.14 386.678 373.212C386.575 373.284 386.451 373.322 386.324 373.322Z"
            fill="black" />
        <path
            d="M321.282 491.741C319.975 491.741 318.697 491.353 317.61 490.627C316.523 489.9 315.676 488.868 315.174 487.66C314.674 486.452 314.544 485.122 314.798 483.84C315.054 482.558 315.684 481.38 316.607 480.455C317.532 479.53 318.71 478.901 319.993 478.646C321.276 478.391 322.604 478.522 323.812 479.022C325.02 479.522 326.053 480.37 326.779 481.458C327.505 482.544 327.893 483.822 327.893 485.13C327.891 486.882 327.193 488.562 325.954 489.802C324.715 491.041 323.035 491.738 321.282 491.741ZM321.282 479.767C320.222 479.767 319.185 480.082 318.303 480.67C317.421 481.259 316.734 482.097 316.328 483.078C315.922 484.057 315.815 485.136 316.023 486.176C316.229 487.216 316.74 488.173 317.49 488.922C318.24 489.672 319.196 490.184 320.236 490.39C321.277 490.597 322.355 490.491 323.335 490.085C324.314 489.679 325.152 488.991 325.742 488.109C326.331 487.227 326.646 486.191 326.646 485.13C326.644 483.708 326.078 482.344 325.073 481.339C324.067 480.333 322.704 479.768 321.282 479.767Z"
            fill="black" />
        <path
            d="M236.863 42.5882C235.555 42.5882 234.277 42.2007 233.19 41.4743C232.103 40.7479 231.256 39.7156 230.756 38.5076C230.254 37.2996 230.124 35.97 230.379 34.6877C230.634 33.4054 231.264 32.2277 232.189 31.3032C233.112 30.3787 234.29 29.7493 235.573 29.4943C236.856 29.2392 238.184 29.3698 239.392 29.8701C240.6 30.3705 241.633 31.218 242.359 32.3051C243.085 33.3921 243.473 34.6701 243.473 35.9776C243.471 37.7302 242.773 39.4104 241.534 40.6496C240.295 41.8889 238.615 42.586 236.863 42.5882ZM236.863 30.6144C235.802 30.6144 234.765 30.9288 233.883 31.5182C233.001 32.1075 232.314 32.9452 231.908 33.9251C231.502 34.9051 231.395 35.9835 231.603 37.0239C231.809 38.0643 232.32 39.0201 233.071 39.7701C233.82 40.5202 234.776 41.0311 235.816 41.2379C236.857 41.4448 237.935 41.3388 238.915 40.9328C239.895 40.5269 240.732 39.839 241.322 38.957C241.911 38.0751 242.226 37.0384 242.226 35.9776C242.225 34.5556 241.658 33.1924 240.653 32.1869C239.647 31.1814 238.285 30.6159 236.863 30.6144Z"
            fill="black" />
        <path
            d="M479.196 372.896C477.77 372.897 476.375 372.473 475.189 371.682C474.003 370.889 473.08 369.764 472.533 368.447C471.988 367.129 471.845 365.68 472.122 364.28C472.401 362.882 473.088 361.597 474.096 360.589C475.104 359.58 476.389 358.894 477.787 358.615C479.187 358.337 480.636 358.48 481.953 359.025C483.271 359.57 484.397 360.495 485.189 361.681C485.982 362.866 486.404 364.26 486.404 365.686C486.403 367.598 485.642 369.43 484.291 370.782C482.939 372.133 481.107 372.893 479.196 372.896ZM479.196 359.723C478.016 359.723 476.864 360.073 475.883 360.728C474.903 361.383 474.138 362.315 473.687 363.404C473.235 364.492 473.117 365.692 473.347 366.849C473.576 368.006 474.144 369.068 474.978 369.902C475.811 370.736 476.874 371.304 478.031 371.535C479.188 371.764 480.386 371.646 481.476 371.195C482.565 370.743 483.497 369.98 484.152 368.999C484.807 368.019 485.157 366.865 485.157 365.686C485.155 364.106 484.526 362.59 483.409 361.472C482.292 360.355 480.776 359.726 479.196 359.723Z"
            fill="black" />
        <path
            d="M136.128 284.735C134.851 284.735 133.601 284.355 132.539 283.645C131.476 282.935 130.649 281.927 130.159 280.746C129.671 279.565 129.543 278.266 129.792 277.013C130.041 275.76 130.656 274.608 131.56 273.706C132.464 272.802 133.615 272.187 134.868 271.937C136.121 271.688 137.421 271.816 138.601 272.304C139.781 272.794 140.79 273.622 141.501 274.685C142.211 275.747 142.589 276.996 142.589 278.274C142.587 279.987 141.906 281.629 140.695 282.84C139.484 284.051 137.841 284.733 136.128 284.735ZM136.128 273.061C135.098 273.061 134.089 273.367 133.232 273.939C132.374 274.512 131.706 275.326 131.312 276.278C130.917 277.231 130.814 278.28 131.016 279.29C131.216 280.302 131.713 281.232 132.442 281.96C133.17 282.689 134.1 283.186 135.112 283.388C136.122 283.588 137.171 283.485 138.124 283.091C139.077 282.696 139.89 282.028 140.463 281.17C141.036 280.313 141.342 279.304 141.342 278.274C141.34 276.892 140.79 275.567 139.813 274.589C138.835 273.612 137.51 273.062 136.128 273.061Z"
            fill="black" />
        <path
            d="M180.134 283.986C180.016 283.986 179.898 283.953 179.797 283.889C179.698 283.825 179.618 283.733 179.568 283.625C179.518 283.516 179.499 283.397 179.515 283.278C179.532 283.16 179.582 283.049 179.659 282.958L188.34 272.781C188.393 272.718 188.458 272.666 188.531 272.629C188.605 272.592 188.683 272.57 188.766 272.563C188.847 272.556 188.929 272.566 189.007 272.591C189.085 272.616 189.158 272.657 189.22 272.71C189.282 272.762 189.333 272.827 189.372 272.9C189.409 272.973 189.431 273.053 189.438 273.135C189.443 273.216 189.434 273.298 189.41 273.376C189.384 273.455 189.344 273.527 189.29 273.59L180.61 283.767C180.551 283.837 180.477 283.891 180.396 283.929C180.314 283.968 180.224 283.986 180.134 283.986Z"
            fill="black" />
        <path
            d="M236.862 129.817C236.772 129.817 236.681 129.796 236.599 129.757C236.517 129.719 236.443 129.663 236.385 129.593L227.704 119.267C227.651 119.204 227.612 119.131 227.587 119.053C227.562 118.975 227.554 118.893 227.561 118.811C227.568 118.729 227.591 118.649 227.628 118.577C227.667 118.504 227.718 118.441 227.78 118.388C227.843 118.335 227.916 118.295 227.994 118.271C228.072 118.247 228.154 118.237 228.235 118.244C228.318 118.251 228.396 118.275 228.47 118.313C228.541 118.35 228.606 118.402 228.659 118.465L237.34 128.792C237.417 128.883 237.466 128.993 237.481 129.111C237.496 129.228 237.477 129.349 237.427 129.456C237.378 129.564 237.297 129.654 237.198 129.718C237.098 129.782 236.982 129.815 236.862 129.817Z"
            fill="black" />
        <path
            d="M436.388 211.092C436.312 211.092 436.238 211.078 436.167 211.051L422.472 205.888C422.394 205.859 422.324 205.816 422.264 205.759C422.204 205.703 422.156 205.636 422.122 205.562C422.088 205.486 422.069 205.406 422.067 205.324C422.064 205.242 422.077 205.16 422.106 205.084C422.135 205.007 422.179 204.936 422.235 204.876C422.292 204.817 422.359 204.769 422.435 204.736C422.509 204.702 422.59 204.682 422.671 204.68C422.754 204.678 422.836 204.692 422.913 204.722L436.608 209.885C436.745 209.936 436.859 210.034 436.931 210.161C437.003 210.288 437.028 210.436 437.002 210.58C436.975 210.724 436.899 210.854 436.787 210.947C436.675 211.041 436.534 211.092 436.388 211.092Z"
            fill="black" />
        <path
            d="M435.899 301.799C435.759 301.799 435.625 301.753 435.516 301.668C435.407 301.582 435.328 301.462 435.294 301.328L432.189 289.054C432.169 288.974 432.165 288.891 432.176 288.81C432.188 288.73 432.216 288.651 432.257 288.581C432.299 288.511 432.355 288.449 432.42 288.4C432.486 288.351 432.56 288.316 432.64 288.296C432.719 288.274 432.802 288.269 432.884 288.28C432.965 288.291 433.043 288.319 433.114 288.361C433.185 288.403 433.246 288.458 433.295 288.525C433.344 288.591 433.378 288.666 433.398 288.746L436.503 301.022C436.526 301.113 436.527 301.21 436.508 301.302C436.488 301.395 436.449 301.482 436.389 301.558C436.331 301.632 436.257 301.692 436.172 301.734C436.087 301.776 435.994 301.798 435.899 301.799Z"
            fill="black" />
        <path
            d="M306.176 42.5882C306.037 42.5883 305.902 42.5425 305.793 42.4573C305.684 42.3722 305.606 42.2525 305.571 42.118L302.466 29.8446C302.447 29.7652 302.442 29.6826 302.454 29.6016C302.465 29.5205 302.493 29.4423 302.535 29.372C302.577 29.3015 302.632 29.24 302.697 29.1911C302.763 29.1421 302.838 29.1069 302.918 29.0869C302.997 29.0653 303.08 29.0599 303.161 29.0711C303.243 29.0822 303.321 29.1094 303.392 29.1515C303.463 29.1935 303.525 29.2495 303.573 29.3159C303.622 29.3822 303.657 29.4576 303.675 29.5375L306.78 41.8111C306.804 41.9031 306.805 41.999 306.785 42.0918C306.767 42.1848 306.726 42.2721 306.668 42.3471C306.609 42.4219 306.534 42.4825 306.45 42.5243C306.364 42.5661 306.271 42.588 306.176 42.5882Z"
            fill="black" />
        <path
            d="M514.86 343.837C514.777 343.837 514.694 343.821 514.617 343.787C505.902 340.159 498.142 334.571 491.938 327.456C481.128 314.98 478.541 301.146 476.829 291.989C474.365 277.743 474.466 263.171 477.127 248.959C480.475 229.667 486.658 215.515 491.628 204.143C496.006 194.125 499.288 186.613 498.662 180.067C494.868 187.325 489.694 194.403 482.274 194.906C476.044 195.332 469.321 191.016 467.567 185.491C466.318 181.56 467.488 176.846 470.775 172.56C474.645 167.513 480.34 164.349 485.253 164.624C489.719 164.827 494.499 167.996 497.43 172.7C498.137 173.826 498.713 175.031 499.143 176.29C499.972 174.543 500.727 172.84 501.418 171.282C507.518 157.515 518.867 131.906 505.098 115.049C494.256 101.774 475.208 102.431 471.499 102.704C458.701 103.626 449.855 110.397 441.299 116.946C432.539 123.662 425.082 131.925 419.296 141.326C419.253 141.396 419.198 141.456 419.132 141.505C419.064 141.552 418.99 141.587 418.91 141.606C418.83 141.625 418.748 141.628 418.666 141.615C418.585 141.602 418.507 141.573 418.438 141.53C418.368 141.487 418.308 141.431 418.26 141.363C418.213 141.297 418.178 141.222 418.159 141.142C418.141 141.063 418.137 140.979 418.151 140.898C418.164 140.818 418.194 140.74 418.237 140.671C424.101 131.139 431.661 122.763 440.541 115.954C449.243 109.295 458.239 102.408 471.409 101.459C475.227 101.187 494.832 100.509 506.065 114.26C520.317 131.71 508.766 157.776 502.562 171.781C501.694 173.737 500.731 175.911 499.645 178.122C501.179 185.403 497.634 193.517 492.771 204.644C487.828 215.953 481.677 230.029 478.355 249.174C475.721 263.238 475.619 277.66 478.054 291.761C479.742 300.784 482.293 314.421 492.88 326.641C498.961 333.61 506.565 339.085 515.104 342.64C515.236 342.697 515.345 342.796 515.413 342.924C515.48 343.052 515.501 343.198 515.472 343.338C515.443 343.48 515.366 343.606 515.255 343.697C515.143 343.787 515.004 343.837 514.86 343.837ZM484.766 165.858C480.393 165.858 475.225 168.809 471.765 173.319C468.73 177.277 467.632 181.575 468.756 185.114C470.349 190.134 476.541 194.083 482.19 193.661C489.501 193.166 494.606 185.456 498.321 177.987C497.929 176.348 497.269 174.785 496.37 173.36C493.651 168.993 489.265 166.054 485.196 165.867C485.054 165.862 484.911 165.858 484.766 165.858Z"
            fill="black" />
        <path
            d="M465.086 503.445C458.978 503.445 450.249 502.053 443.147 495.466C439.931 492.415 437.383 488.731 435.662 484.645C433.784 484.429 431.942 483.983 430.173 483.317C422.762 480.422 419.511 473.827 416.071 466.846C411.189 456.753 408.417 445.771 407.924 434.572C407.254 421.467 409.2 408.358 413.648 396.012C413.674 395.934 413.716 395.864 413.771 395.803C413.826 395.742 413.893 395.692 413.966 395.657C414.04 395.621 414.12 395.6 414.202 395.597C414.285 395.592 414.366 395.604 414.444 395.632C414.52 395.659 414.591 395.701 414.653 395.757C414.713 395.811 414.763 395.878 414.798 395.952C414.834 396.026 414.853 396.106 414.857 396.187C414.861 396.27 414.849 396.352 414.822 396.429C410.43 408.62 408.509 421.564 409.169 434.507C409.654 445.537 412.383 456.354 417.188 466.294C420.519 473.053 423.667 479.435 430.626 482.154C432.078 482.704 433.585 483.094 435.121 483.319C431.648 474.286 431.908 464.105 436.801 458.093C439.271 455.06 444.605 451.148 449.173 452.813C453.987 454.56 454.882 460.816 455.265 463.488C455.536 465.381 456.514 475.134 449.051 481.126C445.651 483.804 441.368 485.104 437.054 484.765C438.704 488.45 441.062 491.776 443.994 494.552C454.615 504.403 469.093 502.133 471.888 501.582C487.384 498.514 494.695 485.606 496.002 483.051C496.039 482.978 496.09 482.913 496.153 482.86C496.216 482.806 496.288 482.764 496.365 482.739C496.444 482.713 496.527 482.704 496.608 482.711C496.69 482.717 496.769 482.74 496.844 482.777C496.917 482.814 496.98 482.867 497.034 482.928C497.087 482.991 497.128 483.064 497.153 483.142C497.178 483.22 497.187 483.303 497.181 483.384C497.174 483.466 497.151 483.545 497.114 483.618C495.759 486.265 488.191 499.625 472.13 502.805C469.807 503.241 467.45 503.456 465.086 503.445ZM436.497 483.48C440.705 483.949 444.93 482.756 448.269 480.155C455.204 474.584 454.284 465.442 454.029 463.665C453.679 461.214 452.858 455.476 448.747 453.985C444.817 452.566 439.926 456.231 437.768 458.881C433.022 464.711 432.914 474.712 436.497 483.48Z"
            fill="black" />
        <path
            d="M208.276 143.587C208.216 143.587 208.157 143.577 208.099 143.561C199.549 141.022 178.894 133.134 171.773 114.75C170.727 112.175 169.927 109.508 169.382 106.783C162.444 104.455 157.256 98.0897 154.472 93.9165C145.978 81.1753 148.048 66.7665 149.284 58.157C150.833 47.6059 154.643 37.5139 160.454 28.5719C160.542 28.4327 160.683 28.3345 160.845 28.2991C161.006 28.2637 161.175 28.294 161.315 28.3831C161.454 28.4723 161.551 28.6132 161.587 28.7747C161.622 28.9363 161.592 29.1051 161.503 29.2443C155.79 38.0365 152.043 47.9592 150.52 58.3336C149.307 66.7665 147.28 80.8793 155.51 93.2234C158.106 97.1177 162.869 103.002 169.156 105.378C168.609 101.34 168.894 96.8338 171.551 93.2015C174.126 89.6788 179.873 85.7114 184.592 87.915C188.587 89.7823 190.16 95.2162 189.122 99.119C187.54 105.058 180.031 107.484 175.371 107.664C173.8 107.722 172.228 107.556 170.703 107.171C171.251 109.604 171.997 111.987 172.935 114.298C179.857 132.169 200.079 139.879 208.455 142.365C208.598 142.408 208.722 142.501 208.803 142.627C208.883 142.753 208.916 142.904 208.895 143.053C208.873 143.201 208.798 143.336 208.685 143.435C208.572 143.532 208.427 143.587 208.276 143.587ZM170.45 105.809C172.03 106.276 173.676 106.482 175.322 106.417C179.613 106.251 186.508 104.085 187.917 98.7975C188.807 95.4526 187.442 90.6253 184.063 89.0453C180.032 87.1573 174.814 90.8506 172.557 93.9372C169.979 97.4648 169.814 101.876 170.45 105.809Z"
            fill="black" />
        <path
            d="M157.167 223.597C161.942 221.851 161.703 209.197 156.633 195.333C151.563 181.469 143.582 171.645 138.807 173.391C134.032 175.137 134.271 187.792 139.342 201.656C144.413 215.52 152.394 225.343 157.167 223.597Z"
            fill="#FBA173" />
        <path
            d="M151.955 223.22C146.759 223.22 139.495 213.821 134.687 200.672C129.419 186.266 129.346 173.501 134.522 171.607C137.082 170.671 140.46 172.57 144.024 176.956C147.947 182.09 151.028 187.817 153.148 193.92C153.177 193.997 153.19 194.079 153.186 194.16C153.183 194.243 153.163 194.323 153.128 194.397C153.094 194.471 153.045 194.539 152.985 194.594C152.925 194.649 152.855 194.692 152.777 194.721C152.7 194.749 152.618 194.761 152.537 194.758C152.454 194.754 152.374 194.735 152.3 194.7C152.226 194.666 152.16 194.617 152.104 194.557C152.048 194.497 152.005 194.426 151.977 194.349C149.905 188.375 146.894 182.769 143.057 177.743C139.9 173.859 136.939 172.048 134.952 172.779C131.059 174.203 130.495 185.578 135.859 200.243C140.535 213.033 147.997 222.751 152.468 221.927C152.631 221.897 152.798 221.933 152.935 222.027C153.07 222.121 153.163 222.265 153.193 222.428C153.224 222.59 153.188 222.757 153.095 222.894C153.001 223.03 152.857 223.123 152.694 223.153C152.451 223.198 152.202 223.221 151.955 223.22Z"
            fill="black" />
        <path
            d="M98.293 156.921L127.857 239.766L201.235 255.934L203.49 245.702L134.204 230.434L108.232 159.112L98.293 156.921Z"
            fill="#FBA173" />
        <path
            d="M201.235 256.558C201.189 256.558 201.145 256.552 201.101 256.543L127.722 240.374C127.619 240.351 127.523 240.302 127.443 240.233C127.365 240.163 127.304 240.074 127.268 239.974L97.7044 157.131C97.6668 157.025 97.6582 156.913 97.6791 156.804C97.7001 156.695 97.7499 156.593 97.8234 156.509C97.8971 156.425 97.9917 156.363 98.0975 156.328C98.2034 156.293 98.3167 156.289 98.4255 156.312L108.365 158.502C108.468 158.524 108.563 158.573 108.642 158.642C108.721 158.711 108.781 158.799 108.817 158.898L134.672 229.9L203.624 245.092C203.785 245.128 203.925 245.227 204.015 245.366C204.104 245.505 204.134 245.675 204.098 245.836L201.844 256.068C201.814 256.206 201.736 256.33 201.626 256.42C201.515 256.509 201.377 256.558 201.235 256.558ZM128.328 239.23L200.76 255.191L202.747 246.177L134.069 231.043C133.967 231.021 133.872 230.972 133.793 230.904C133.714 230.834 133.654 230.746 133.618 230.647L107.762 159.645L99.2575 157.773L128.328 239.23Z"
            fill="black" />
        <path
            d="M125.673 49.4888H4.20803C2.45138 49.4888 1.02734 50.9129 1.02734 52.6695V132.823C1.02734 134.58 2.45138 136.003 4.20803 136.003H125.673C127.43 136.003 128.854 134.58 128.854 132.823V52.6695C128.854 50.9129 127.43 49.4888 125.673 49.4888Z"
            fill="white" />
        <path
            d="M131.348 54.5771H9.8838C8.12716 54.5771 6.70312 56.0011 6.70312 57.7578V137.911C6.70312 139.668 8.12716 141.092 9.8838 141.092H131.348C133.105 141.092 134.529 139.668 134.529 137.911V57.7578C134.529 56.0011 133.105 54.5771 131.348 54.5771Z"
            fill="#FCDC75" />
        <path
            d="M125.671 136.627H4.20644C3.19789 136.626 2.23097 136.224 1.51781 135.511C0.804655 134.798 0.403496 133.832 0.402344 132.822V52.6698C0.403496 51.6612 0.804655 50.6945 1.51781 49.9814C2.23097 49.2682 3.19789 48.8668 4.20644 48.8657H125.671C126.68 48.8668 127.646 49.2677 128.36 49.9808C129.072 50.694 129.474 51.6612 129.475 52.6698V132.822C129.474 133.832 129.072 134.798 128.36 135.511C127.646 136.224 126.68 136.626 125.671 136.627ZM4.20644 50.113C3.52864 50.1139 2.87899 50.3835 2.39971 50.8627C1.92043 51.342 1.6506 51.9919 1.64967 52.6698V132.822C1.6506 133.501 1.92043 134.151 2.39971 134.63C2.87899 135.109 3.52864 135.378 4.20644 135.38H125.671C126.349 135.378 126.999 135.109 127.478 134.63C127.957 134.151 128.226 133.501 128.228 132.822V52.6698C128.226 51.9919 127.957 51.342 127.478 50.8627C126.999 50.3835 126.349 50.1139 125.671 50.113H4.20644Z"
            fill="black" />
        <path
            d="M128.852 64.6509H1.02601C0.944094 64.651 0.862949 64.6347 0.787262 64.6034C0.711574 64.5721 0.642979 64.5261 0.585058 64.4682C0.527136 64.4103 0.481175 64.3416 0.449849 64.266C0.418524 64.1903 0.402298 64.1092 0.402344 64.0273V52.6698C0.403496 51.6612 0.804655 50.6945 1.51781 49.9814C2.23097 49.2682 3.19789 48.8668 4.20644 48.8657H125.671C126.68 48.8668 127.646 49.2677 128.36 49.9808C129.072 50.694 129.474 51.6612 129.475 52.6698V64.0273C129.475 64.1092 129.459 64.1903 129.427 64.266C129.396 64.3416 129.351 64.4103 129.293 64.4682C129.235 64.5261 129.166 64.5721 129.09 64.6034C129.014 64.6347 128.933 64.651 128.852 64.6509ZM1.64967 63.4036H128.228V52.6698C128.226 51.9919 127.957 51.342 127.478 50.8627C126.999 50.3835 126.349 50.1139 125.671 50.113H4.20644C3.52864 50.1139 2.879 50.3835 2.39971 50.8627C1.92043 51.342 1.6506 51.9919 1.64967 52.6698V63.4036Z"
            fill="black" />
        <path
            d="M8.88283 58.9366C10.0866 58.9366 11.0625 57.9606 11.0625 56.7569C11.0625 55.553 10.0866 54.5771 8.88283 54.5771C7.67901 54.5771 6.70312 55.553 6.70312 56.7569C6.70312 57.9606 7.67901 58.9366 8.88283 58.9366Z"
            fill="white" />
        <path
            d="M17.7812 58.9366C18.985 58.9366 19.9609 57.9606 19.9609 56.7569C19.9609 55.553 18.985 54.5771 17.7812 54.5771C16.5774 54.5771 15.6016 55.553 15.6016 56.7569C15.6016 57.9606 16.5774 58.9366 17.7812 58.9366Z"
            fill="white" />
        <path
            d="M26.6739 58.9366C27.8777 58.9366 28.8536 57.9606 28.8536 56.7569C28.8536 55.553 27.8777 54.5771 26.6739 54.5771C25.47 54.5771 24.4941 55.553 24.4941 56.7569C24.4941 57.9606 25.47 58.9366 26.6739 58.9366Z"
            fill="white" />
        <path
            d="M8.88225 59.5613C8.32778 59.5615 7.78571 59.3973 7.32461 59.0893C6.86352 58.7813 6.50428 58.3432 6.29198 57.831C6.07969 57.3188 6.02374 56.7554 6.1318 56.2115C6.23985 55.6678 6.50691 55.1683 6.89889 54.7761C7.29088 54.3839 7.79032 54.117 8.33411 54.0086C8.8779 53.9003 9.44156 53.9556 9.95387 54.1676C10.4662 54.3797 10.904 54.7389 11.2122 55.1999C11.5203 55.6609 11.685 56.2028 11.6851 56.7572C11.6841 57.5004 11.3886 58.2129 10.8632 58.7385C10.3378 59.2642 9.62542 59.5601 8.88225 59.5613ZM8.88225 55.2018C8.57443 55.2017 8.27341 55.2928 8.01741 55.4637C7.76141 55.6346 7.56184 55.8778 7.44399 56.1622C7.32613 56.4466 7.29535 56.7593 7.35537 57.0611C7.4154 57.3631 7.56374 57.6407 7.78141 57.8584C7.99906 58.0761 8.27642 58.2241 8.57833 58.2841C8.88026 58.3441 9.19292 58.313 9.47729 58.1953C9.76166 58.0774 10.0049 57.8781 10.1759 57.6222C10.3468 57.3661 10.4379 57.0651 10.4378 56.7572C10.4372 56.345 10.2732 55.9495 9.98158 55.6579C9.68999 55.3663 9.29462 55.2024 8.88225 55.2018Z"
            fill="black" />
        <path
            d="M17.7787 59.5613C17.2243 59.5615 16.6822 59.3973 16.2211 59.0893C15.7601 58.7813 15.4008 58.3432 15.1885 57.831C14.9761 57.3188 14.9202 56.7554 15.0283 56.2115C15.1364 55.6678 15.4034 55.1683 15.7953 54.7761C16.1874 54.3839 16.6868 54.117 17.2306 54.0086C17.7744 53.9003 18.338 53.9556 18.8503 54.1676C19.3627 54.3797 19.8005 54.7389 20.1087 55.1999C20.4168 55.6609 20.5814 56.2028 20.5815 56.7572C20.5806 57.5004 20.2851 58.2129 19.7597 58.7385C19.2343 59.2642 18.5219 59.5601 17.7787 59.5613ZM17.7787 55.2018C17.4709 55.2017 17.1699 55.2928 16.9139 55.4637C16.6579 55.6346 16.4584 55.8778 16.3405 56.1622C16.2226 56.4466 16.1918 56.7593 16.2518 57.0611C16.3119 57.3631 16.4602 57.6407 16.6779 57.8584C16.8956 58.0761 17.1729 58.2241 17.4748 58.2841C17.7767 58.3441 18.0895 58.313 18.3737 58.1953C18.6581 58.0774 18.9014 57.8781 19.0724 57.6222C19.2433 57.3661 19.3344 57.0651 19.3343 56.7572C19.3337 56.345 19.1696 55.9495 18.878 55.6579C18.5864 55.3663 18.1911 55.2024 17.7787 55.2018Z"
            fill="black" />
        <path
            d="M26.6701 59.5617C26.1157 59.5616 25.5737 59.3973 25.1128 59.0891C24.6518 58.781 24.2925 58.3431 24.0804 57.8308C23.8683 57.3186 23.8129 56.7551 23.9211 56.2114C24.0293 55.6677 24.2962 55.1679 24.6882 54.7758C25.0803 54.3839 25.5797 54.1166 26.1234 54.0085C26.6672 53.9002 27.231 53.9559 27.7432 54.168C28.2554 54.3801 28.6934 54.7394 29.0014 55.2004C29.3096 55.6613 29.4739 56.2033 29.474 56.7577C29.4734 57.5011 29.1776 58.2138 28.6519 58.7396C28.1262 59.2652 27.4135 59.561 26.6701 59.5617ZM26.6701 55.2021C26.3622 55.2022 26.0613 55.2936 25.8055 55.4647C25.5496 55.6358 25.3504 55.8788 25.2327 56.1632C25.1151 56.4476 25.0846 56.7604 25.1447 57.0622C25.2049 57.3641 25.3531 57.6413 25.5708 57.8589C25.7884 58.0764 26.0658 58.2246 26.3677 58.2846C26.6695 58.3445 26.9823 58.3135 27.2666 58.1956C27.5509 58.0777 27.794 57.8785 27.9649 57.6225C28.1358 57.3665 28.2269 57.0654 28.2268 56.7577C28.2262 56.3451 28.0621 55.9494 27.7703 55.6578C27.4785 55.3661 27.0827 55.2024 26.6701 55.2021Z"
            fill="black" />
        <path d="M107.935 83.1665H21.9414V93.4944H107.935V83.1665Z" fill="white" />
        <path d="M77.8514 102.025H52.0293V111.006H77.8514V102.025Z" fill="white" />
        <path
            d="M107.938 94.1186H21.944C21.8621 94.1186 21.781 94.1024 21.7053 94.071C21.6295 94.0397 21.561 93.9938 21.5031 93.9358C21.4452 93.8779 21.3992 93.8094 21.3679 93.7336C21.3366 93.658 21.3203 93.5768 21.3203 93.4949V83.1667C21.3203 83.0847 21.3366 83.0036 21.3679 82.928C21.3992 82.8522 21.4452 82.7836 21.5031 82.7257C21.561 82.6678 21.6295 82.6219 21.7053 82.5905C21.781 82.5592 21.8621 82.543 21.944 82.543H107.938C108.02 82.543 108.101 82.5592 108.176 82.5905C108.252 82.6219 108.321 82.6678 108.379 82.7257C108.437 82.7836 108.483 82.8522 108.514 82.928C108.545 83.0036 108.561 83.0847 108.561 83.1667V93.4949C108.561 93.5768 108.545 93.658 108.514 93.7336C108.483 93.8094 108.437 93.8779 108.379 93.9358C108.321 93.9938 108.252 94.0397 108.176 94.071C108.101 94.1024 108.02 94.1186 107.938 94.1186ZM22.5677 92.8712H107.314V83.7903H22.5677V92.8712Z"
            fill="black" />
        <path
            d="M77.8504 111.63H52.028C51.9461 111.631 51.865 111.614 51.7893 111.583C51.7135 111.552 51.645 111.506 51.5871 111.448C51.5292 111.39 51.4832 111.321 51.4519 111.246C51.4205 111.17 51.4043 111.089 51.4043 111.007V102.027C51.4043 101.945 51.4205 101.864 51.4519 101.788C51.4832 101.713 51.5292 101.644 51.5871 101.586C51.645 101.528 51.7135 101.482 51.7893 101.451C51.865 101.42 51.9461 101.403 52.028 101.403H77.8504C77.9323 101.403 78.0134 101.42 78.0891 101.451C78.1647 101.482 78.2337 101.528 78.2916 101.586C78.3496 101.644 78.3952 101.713 78.4265 101.788C78.4578 101.864 78.4741 101.945 78.474 102.027V111.007C78.4741 111.089 78.4578 111.17 78.4265 111.246C78.3952 111.321 78.3496 111.39 78.2916 111.448C78.2337 111.506 78.1647 111.552 78.0891 111.583C78.0134 111.614 77.9323 111.631 77.8504 111.63ZM52.6517 110.383H77.2267V102.651H52.6517V110.383Z"
            fill="black" />
        <path
            d="M36.8541 131.642C36.6437 131.643 36.4355 131.601 36.241 131.521C36.0467 131.441 35.87 131.323 35.7212 131.174C35.5725 131.025 35.4544 130.848 35.3741 130.654C35.2939 130.46 35.2528 130.252 35.2532 130.041V125.238C35.2532 123.539 34.5786 121.911 33.3777 120.71C32.1767 119.509 30.548 118.834 28.8497 118.834C27.1513 118.834 25.5223 119.509 24.3215 120.71C23.1205 121.911 22.4459 123.539 22.4459 125.238V130.041C22.4442 130.464 22.2749 130.87 21.9748 131.168C21.6747 131.468 21.2685 131.635 20.845 131.635C20.4215 131.635 20.0153 131.468 19.7152 131.168C19.4152 130.87 19.2458 130.464 19.2441 130.041V125.238C19.2441 122.691 20.256 120.247 22.0573 118.446C23.8587 116.644 26.3018 115.633 28.8494 115.633C31.3969 115.633 33.8404 116.644 35.6417 118.446C37.4432 120.247 38.455 122.691 38.455 125.238V130.041C38.4555 130.252 38.4144 130.46 38.3341 130.654C38.2538 130.848 38.136 131.025 37.9873 131.174C37.8385 131.323 37.6618 131.441 37.4674 131.521C37.2729 131.601 37.0644 131.643 36.8541 131.642Z"
            fill="black" />
        <path
            d="M17.6473 130.041H40.0602C40.909 130.042 41.7224 130.379 42.3226 130.979C42.9227 131.579 43.2606 132.394 43.262 133.242V149.251C43.2606 150.101 42.9227 150.914 42.3226 151.514C41.7224 152.114 40.909 152.452 40.0602 152.453H17.6473C16.7986 152.452 15.9849 152.114 15.3847 151.514C14.7846 150.914 14.4467 150.101 14.4453 149.251V133.242C14.4467 132.394 14.7846 131.579 15.3847 130.979C15.9849 130.379 16.7986 130.042 17.6473 130.041Z"
            fill="white" />
        <path
            d="M20.8463 133.034H43.2591C44.1079 133.035 44.9217 133.374 45.5218 133.974C46.1219 134.573 46.4595 135.387 46.4609 136.235V152.244C46.4596 153.094 46.1219 153.907 45.5218 154.507C44.9217 155.108 44.1079 155.446 43.2591 155.447H20.8463C19.9975 155.446 19.1841 155.108 18.5839 154.507C17.9838 153.907 17.6459 153.094 17.6445 152.244V136.235C17.6459 135.387 17.9838 134.573 18.5839 133.974C19.1841 133.374 19.9975 133.035 20.8463 133.034Z"
            fill="#FCDC75" />
        <path
            d="M33.6544 141.247C33.6544 142.196 33.3728 143.124 32.8451 143.914C32.3173 144.705 31.5672 145.32 30.6896 145.683C29.812 146.047 28.8461 146.142 27.9145 145.957C26.9829 145.771 26.1271 145.314 25.4555 144.642C24.7838 143.971 24.3265 143.115 24.1412 142.183C23.9559 141.251 24.0508 140.286 24.4143 139.409C24.7778 138.53 25.3934 137.781 26.1833 137.253C26.9731 136.725 27.9016 136.443 28.8515 136.443C30.1251 136.444 31.3466 136.95 32.2472 137.85C33.1478 138.752 33.654 139.973 33.6544 141.247Z"
            fill="white" />
        <path
            d="M40.0593 153.077H17.6463C16.6322 153.076 15.6597 152.673 14.9425 151.956C14.2253 151.239 13.8217 150.267 13.8203 149.252V133.243C13.8217 132.229 14.2253 131.257 14.9425 130.54C15.6597 129.822 16.6322 129.419 17.6463 129.417H40.0593C41.0732 129.42 42.0454 129.822 42.7625 130.54C43.4795 131.257 43.8827 132.229 43.884 133.243V149.252C43.8827 150.267 43.4795 151.238 42.7625 151.955C42.0454 152.672 41.0732 153.076 40.0593 153.077ZM17.6463 130.665C16.9629 130.666 16.3075 130.938 15.8241 131.421C15.3406 131.904 15.0686 132.56 15.0677 133.243V149.252C15.0686 149.936 15.3406 150.592 15.8241 151.074C16.3075 151.558 16.9629 151.828 17.6463 151.83H40.0593C40.7426 151.828 41.398 151.557 41.8813 151.074C42.3644 150.59 42.6361 149.936 42.6368 149.252V133.243C42.6361 132.56 42.3644 131.904 41.8813 131.421C41.398 130.938 40.7426 130.666 40.0593 130.665H17.6463Z"
            fill="black" />
        <path
            d="M130.476 394.282C123.564 394.282 117.654 391.967 113.521 387.561C103.154 376.511 107.433 355.591 123.06 340.929C130.603 333.852 139.637 329.262 148.501 328C157.445 326.725 165.154 328.991 170.204 334.376C180.572 345.425 176.293 366.345 160.665 381.007C153.124 388.084 144.089 392.675 135.224 393.936C133.652 394.163 132.066 394.278 130.476 394.282ZM153.242 328.902C151.715 328.905 150.188 329.017 148.676 329.235C140.064 330.46 131.27 334.937 123.913 341.839C108.788 356.031 104.534 376.159 114.429 386.708C119.196 391.787 126.525 393.91 135.049 392.702C143.661 391.477 152.455 387 159.812 380.099C174.937 365.905 179.192 345.777 169.296 335.229C165.404 331.082 159.809 328.902 153.242 328.902Z"
            fill="black" />
        <path
            d="M444.268 61.727C451.55 48.8054 442.536 29.9252 424.136 19.5572C405.737 9.18913 384.918 11.2591 377.637 24.1808C370.355 37.1025 379.369 55.9828 397.769 66.3509C416.168 76.719 436.987 74.6488 444.268 61.727Z"
            fill="white" />
        <path
            d="M438.299 61.4442C445.58 48.5226 436.566 29.6424 418.167 19.2744C399.767 8.9063 378.949 10.9766 371.668 23.8982C364.387 36.82 373.399 55.7 391.799 66.0681C410.198 76.4362 431.017 74.366 438.299 61.4442Z"
            fill="#FBA173" />
        <path
            d="M446.148 43.8432C448.218 50.4387 447.778 56.771 444.812 62.0335C437.373 75.2335 416.133 77.4141 397.464 66.8932C388.453 61.817 381.368 54.5718 377.511 46.4919C373.615 38.3397 373.469 30.3053 377.095 23.8743C384.533 10.6744 405.774 8.49383 424.443 19.0147C433.453 24.0909 440.54 31.3361 444.397 39.416C445.084 40.8484 445.668 42.3281 446.148 43.8432ZM376.951 41.6975C377.412 43.1544 377.975 44.5773 378.635 45.9554C382.383 53.8052 389.288 60.8558 398.076 65.8078C416.146 75.9891 436.625 74.0218 443.726 61.4214C447.146 55.3528 446.976 47.7244 443.271 39.9531C439.523 32.1032 432.619 25.0522 423.832 20.1001C405.76 9.91872 385.283 11.8861 378.18 24.4865C375.39 29.4411 374.985 35.4332 376.951 41.6975Z"
            fill="black" />
        <path
            d="M65.4892 232.321C63.0075 232.919 60.4897 233.355 57.9515 233.628C55.4348 233.924 52.9139 234.129 50.389 234.244C47.8641 234.359 45.335 234.388 42.8019 234.33C40.2501 234.284 37.7038 234.078 35.1777 233.714C37.6593 233.115 40.1772 232.679 42.7155 232.407C45.2322 232.111 47.753 231.906 50.278 231.791C52.807 231.668 55.3361 231.655 57.8651 231.717C60.4169 231.754 62.9636 231.955 65.4892 232.321Z"
            fill="#287B77" />
        <path
            d="M51.0303 248.162C50.4322 245.682 49.9953 243.166 49.7226 240.63C49.4265 238.115 49.2168 235.596 49.0935 233.073C48.9701 230.55 48.9454 228.022 49.0194 225.491C49.0665 222.941 49.2725 220.397 49.6363 217.873C50.2344 220.352 50.6712 222.869 50.944 225.405C51.2401 227.92 51.4457 230.439 51.5608 232.962C51.6842 235.427 51.6965 238.016 51.6348 240.543C51.5986 243.093 51.3966 245.638 51.0303 248.162ZM19.8305 238.398C20.4404 240.536 20.8898 242.716 21.1752 244.92C21.496 247.102 21.7181 249.284 21.8414 251.478C21.9648 253.672 22.0141 255.867 21.9648 258.073C21.9402 260.299 21.7505 262.52 21.3973 264.718C20.7887 262.576 20.3392 260.392 20.0526 258.184C19.7442 256.002 19.5098 253.82 19.3864 251.626C19.263 249.432 19.2137 247.237 19.2631 245.031C19.2871 242.809 19.4768 240.592 19.8305 238.398Z"
            fill="#287B77" />
    </g>
    <defs>
        <clipPath id="clip0_603_2961">
            <rect width="515.195" height="520.997" fill="white" transform="translate(0.402344 0.501465)" />
        </clipPath>
    </defs>
</svg>